<svg version="1.1" id="Layer_1" xmlns="http://www.w3.org/2000/svg" xmlns:xlink="http://www.w3.org/1999/xlink" x="0px" y="0px" width="100px" height="49px" viewBox="-255 372 100 49" enable-background="new -255 372 100 49" xml:space="preserve">
<g>
	<g>
		<path fill="#105AB2" d="M-246.4,377.9c5.4-2,10.9-4,16.4-5.9c5.4,2,10.9,3.7,16.2,5.9c3.2,4.8,5.8,10,8.8,14.9    c-1,5.7-2,11.4-3,17.1c-4.4,3.7-8.8,7.4-13.2,11.1h-17.4c-4.4-3.7-8.8-7.4-13.3-11.1c-1.1-5.7-2-11.4-3-17.1    C-252.1,387.9-249.2,382.9-246.4,377.9z M-237.9,383c-2.7,4.6-5.5,9.2-8,13.9c2.6,4.6,5.2,9.1,8,13.6c5.3,0,10.5,0,15.8,0    c2.7-4.5,5.3-9.1,8-13.6c-2.6-4.7-5.3-9.3-8-13.9C-227.4,383-232.6,383-237.9,383z"/>
	</g>
	<g>
		<path fill="#105AB2" d="M-196.2,378c5.3-2.2,10.8-3.9,16.2-6c5.5,2,10.9,3.9,16.4,5.9c2.9,5,5.8,9.9,8.6,14.9    c-1,5.7-2,11.4-3,17.1c-4.4,3.7-8.8,7.4-13.2,11.1h-17.4c-4.4-3.7-8.8-7.4-13.3-11.1c-1.1-5.7-2-11.4-3-17.1    C-202,387.9-199.4,382.8-196.2,378z M-187.9,383c-2.7,4.6-5.4,9.2-8,13.8c2.6,4.6,5.2,9.2,8,13.7c5.3,0,10.5,0,15.8,0    c2.7-4.5,5.3-9.1,8-13.7c-2.6-4.7-5.3-9.3-8-13.8C-177.4,383-182.6,383-187.9,383z"/>
	</g>
</g>
<g>
	<path fill="#1E2933" d="M-237.9,383c5.2,0,10.5,0,15.7,0c2.7,4.6,5.4,9.2,8,13.9c-2.6,4.5-5.2,9.1-8,13.6c-5.3,0-10.5,0-15.8,0   c-2.7-4.5-5.3-9.1-8-13.6C-243.3,392.2-240.6,387.6-237.9,383z M-238.6,402.2c5.6,0.1,11.3,0,16.9,0c-2.8-5-5.6-9.9-8.4-14.9   C-233,392.3-235.8,397.3-238.6,402.2z"/>
</g>
<g>
	<path fill="#FFFFFF" d="M-238.6,402.2c2.8-4.9,5.6-9.9,8.5-14.8c2.8,5,5.7,9.9,8.4,14.9C-227.4,402.2-233,402.3-238.6,402.2z"/>
</g>
<g>
	<path fill="#1E2933" d="M-187.9,383c5.2,0,10.5,0,15.7,0c2.7,4.6,5.4,9.2,8,13.9c-2.6,4.5-5.2,9.1-8,13.6c-5.3,0-10.5,0-15.8,0   c-2.7-4.5-5.3-9.1-8-13.6C-193.3,392.2-190.6,387.6-187.9,383z M-188.6,402.2c5.6,0.1,11.3,0,16.9,0c-2.8-5-5.6-9.9-8.4-14.9   C-183,392.3-185.8,397.3-188.6,402.2z"/>
</g>
<g>
	<path fill="#FF7F00" d="M-188.6,402.2c2.8-4.9,5.6-9.9,8.5-14.8c2.8,5,5.7,9.9,8.4,14.9C-177.4,402.2-183,402.3-188.6,402.2z"/>
</g>
</svg>